<?xml version="1.0" encoding="utf-8"?>
<!-- Generator: Adobe Illustrator 16.0.0, SVG Export Plug-In . SVG Version: 6.00 Build 0)  -->
<!DOCTYPE svg PUBLIC "-//W3C//DTD SVG 1.1//EN" "http://www.w3.org/Graphics/SVG/1.1/DTD/svg11.dtd">
<svg version="1.1" id="Layer_2" xmlns="http://www.w3.org/2000/svg" xmlns:xlink="http://www.w3.org/1999/xlink" x="0px" y="0px"
	 width="72px" height="72px" viewBox="0 0 72 72" enable-background="new 0 0 72 72" xml:space="preserve">
<g>
	<path d="M39.898,42.456c-0.95,0.098-1.901,0.217-2.855,0.275c-0.284,0.02-0.666-0.038-0.853-0.218
		c-0.635-0.608-1.273-1.437-2.176-0.695c-0.493,0.405-0.64,1.232-1.015,2.021c-0.698,0.334-1.735,0.673-2.57,1.287
		c-0.559,0.41-0.783,1.25-1.241,1.834c-0.535,0.68-1.073,1.412-1.767,1.899c-1.267,0.888-2.428,1.673-3.083,3.275
		c-0.403,0.985-1.806,1.581-2.798,2.301c-1.212,0.878-2.21,1.758-2.873,3.278c-0.531,1.219-2.138,1.99-3.318,2.894
		c-0.858,0.656-1.798,1.205-2.702,1.804c-0.095-0.105-0.19-0.211-0.286-0.316c1.073-1.469,2.131-2.947,3.223-4.401
		c0.81-1.079,1.526-2.094,3.008-2.618c2.083-0.74,2.93-2.851,3.779-4.777c0.172-0.391,0.304-0.799,0.446-1.178
		c2.475-0.05,3.066-0.541,4.04-2.992c0.18-0.452,0.728-0.926,1.202-1.064c1.391-0.408,2.727-2.385,2.39-3.754
		c-0.317-1.289-2.563-2.462-3.949-2.063c-0.927,0.27-1.206,1.371-0.583,2.236c0.307,0.428,0.575,0.881,1.082,1.664
		c-2.402-1.279-4.356-2.322-6.694-3.568c0.81-0.383,1.281-0.535,1.675-0.805c1.222-0.832,2.56-1.564,3.578-2.604
		c1.16-1.187,0.844-3.271-0.561-4.814c-0.652-0.717-1.506-1.25-2.271-1.87c-0.501,2.178-0.824,3.942-1.334,5.651
		c-0.251,0.842-0.755,1.65-1.303,2.354c-1.501,1.924-1.344,3.608,0.588,5.141c1.326,1.053,2.394,3.431,2.21,5.58
		c-0.643-0.924-1.112-1.486-1.453-2.117c-0.403-0.746-0.628-1.592-1.051-2.322c-0.998-1.727-2.292-2.98-4.543-2.613
		c-0.512,0.084-1.084-0.199-1.597-0.119c-0.684,0.108-1.336,0.41-2.002,0.627c0.333,0.563,0.531,1.375,1.023,1.641
		c1.794,0.969,2.68,2.564,3.391,4.327c0.168,0.415,0.216,0.879,0.08,1.551c-2.447-4.342-6.486-6.208-11.035-7.317
		c-0.001-0.185-0.003-0.367-0.004-0.552c0.561-0.261,1.099-0.603,1.688-0.769c2.506-0.707,4.813-1.78,6.391-3.918
		c2.429-3.292,2.614-7.337,0.206-10.692c-1.443-2.01-3.393-3.663-5.167-5.423c-0.356-0.353-0.949-0.466-1.433-0.69
		c0.224-0.275,0.448-0.55,0.672-0.825c0.72,0.367,1.55,0.607,2.14,1.123c2.136,1.868,4.675,2.855,7.395,3.187
		c3.374,0.413,6.238-0.926,8.576-3.341c2.971-3.077,2.864-6.716,1.836-10.51c-0.078-0.287-0.01-0.615-0.01-0.923
		c0.132-0.052,0.264-0.104,0.396-0.156c0.281,0.665,0.673,1.306,0.823,1.999c0.611,2.821,2.033,5.1,4.521,6.563
		c4.34,2.553,9.999,1.902,13.661-1.544c0.756-0.71,1.268-1.679,2.291-2.472c0,0.775,0.08,1.561-0.014,2.324
		c-0.421,3.43,0.003,6.717,2.219,9.443c2,2.461,6.975,4.7,10.747,2.881c1.89-0.911,4.015-1.337,6.042-1.956
		c0.223-0.068,0.501,0.044,0.838,0.083c-0.109,1.357-1.168,1.282-1.951,1.522c-3.201,0.98-6.182,2.409-8.525,4.822
		c-0.739,0.761-0.963,2.022-1.422,3.054c-0.193-0.054-0.387-0.108-0.581-0.162c0.196-1.065,0.394-2.13,0.616-3.335
		c-3.573,0.023-4.473,3.101-6.086,5.392c-0.408-0.791-0.691-1.341-1.002-1.944c-1.703,0.608-1.729,2.005-1.674,3.223
		c0.07,1.59,0.489,3.145,2.649,4.137c-0.158-1.609-0.28-2.863-0.403-4.115c0.133-0.086,0.268-0.172,0.399-0.258
		c1.042,3.188,2.438,6.043,6.235,7.18c-0.305-1.709-0.558-3.115-0.806-4.506c1.767,2.06,3.249,4.291,5.222,5.938
		c1.871,1.563,4.256,2.517,6.414,3.737c-0.104,0.184-0.205,0.367-0.307,0.55c-1.413-0.538-2.881-0.967-4.229-1.636
		c-3.914-1.94-6.883,0.004-9.725,2.308c-1.018,0.826-1.791,1.954-2.65,2.915c0.045-2.9,2.506-4.113,4.252-5.855
		c0.451-0.449,0.75-1.049,1.121-1.578c-0.539-0.368-1.028-0.869-1.623-1.08c-2.022-0.717-3.74-0.098-5.313,1.295
		c-2.62,2.32-2.786,5.331-2.354,8.435c0.097,0.693,0.994,1.776,1.572,1.808c1.813,0.103,1.877,1.488,1.814,2.476
		c-0.155,2.438,1.369,4.076,2.355,5.985c0.148,0.289,0.215,0.621,0.039,1.115c-2.312-2.08-4.621-4.162-6.814-6.138
		c0.486-0.464,1.55-1.094,1.467-1.476c-0.232-1.069-0.85-2.098-1.486-3.021c-0.41-0.595-1.088-1.037-1.716-1.438
		c-0.569-0.362-1.233-0.576-1.651-0.764c0.354-0.779,1.051-1.596,0.862-2.035c-0.567-1.336-2.846-2.127-3.903-1.674
		c-0.842,0.362-1.73,0.616-2.97,1.049c0.622-1.907,1.777-2.043,3.021-2.151c0.689-0.062,1.359-0.353,2.037-0.539
		c-0.33-0.646-0.611-1.324-1.01-1.925c-0.293-0.441-0.705-0.824-1.127-1.155c-0.822-0.646-1.683-0.737-2.428,0.121
		c-0.561,0.646-1.105,1.313-1.565,2.032c-0.808,1.263-1.002,2.508,0.368,3.435c-0.395,1.243-0.763,2.403-1.131,3.563
		c0.146,0.097,0.291,0.193,0.437,0.289c0.694-0.268,1.386-0.533,2.079-0.801c-2.876,1.73-3.816,4.463-3.991,7.762
		c-1.438-0.864-0.835-1.95-0.88-2.859c-0.042-0.833-0.073-1.672-0.019-2.502c0.035-0.525,0.161-1.07,0.372-1.553
		c0.794-1.809,0.691-3.527-0.491-5.154c2.313-0.71,2.511-1.66,1.128-5.906c1.224,0.143,2.316,0.16,3.354,0.412
		c1.549,0.378,2.246-0.23,2.372-2.271c0.551,0.047,1.171,0.266,1.632,0.084c0.4-0.158,0.758-0.738,0.869-1.195
		c0.063-0.252-0.432-0.912-0.659-0.904c-0.476,0.016-1.075,0.236-1.374,0.588C40.035,41.345,40.033,41.958,39.898,42.456z
		 M19.757,25.048c-0.004,0.228-0.009,0.457-0.013,0.685c0.922,0.28,1.876,0.876,2.76,0.787c5.013-0.507,7.655-3.6,8.463-8.758
		c1.935,2.682,4.068,4.294,7.045,4.617c2.905,0.314,5.37-0.81,7.87-2.363c0.077,0.49,0.163,0.79,0.165,1.091
		c0.028,3.784,1.751,6.674,4.805,8.756c1.455,0.992,3.135,1.387,4.858,0.587c0.29-0.134,0.642-0.516,0.646-0.787
		c0.002-0.257-0.363-0.638-0.653-0.762c-4.114-1.764-6.752-4.757-7.628-9.182c-0.186-0.94-0.568-1.326-1.512-1.177
		c-1.778,0.282-3.566,0.784-5.344,0.755c-2.264-0.036-4.541-0.398-6.77-0.836c-1.196-0.234-2.4-0.771-3.427-1.438
		c-1.629-1.06-2.149,0-2.568,1.171c-1.093,3.057-3.473,4.562-6.353,5.574C21.273,24.061,20.537,24.615,19.757,25.048z
		 M13.285,39.821c2.656,0.192,6.358-2.517,7.098-5.042c0.881-3.007-0.274-6.867-2.689-8.782c-0.374-0.297-0.931-0.363-1.404-0.536
		c-0.012,0.486-0.094,0.982-0.023,1.456c0.363,2.434,0.761,4.884-0.289,7.232c-0.691,1.543-1.588,2.994-2.36,4.502
		C13.442,38.995,13.399,39.405,13.285,39.821z M24.197,28.083c-0.037,0.201-0.074,0.401-0.11,0.602
		c0.927,0.485,1.803,1.172,2.79,1.417c2.981,0.74,5.75-3.713,5.53-6.049c-0.096-1.018-0.971-0.86-1.595-0.482
		c-0.436,0.263-0.678,0.826-1.088,1.154c-1.057,0.846-2.119,1.697-3.257,2.422C25.787,27.58,24.959,27.778,24.197,28.083z
		 M38.686,26.821c0.922-0.237,1.907-0.344,2.741-0.759c0.538-0.268,0.851-0.988,1.265-1.505c-0.559-0.19-1.107-0.507-1.678-0.548
		c-2.111-0.152-4.304,0.373-6.275-0.905c-0.228-0.148-0.903,0.053-1.1,0.305c-0.159,0.203-0.023,0.808,0.18,1.093
		C35.002,26.161,36.521,27.188,38.686,26.821z M44.607,41.727c-0.355,0.19-0.811,0.354-1.164,0.642
		c-1.088,0.879-1.356,4.115-0.356,5.172c0.203,0.215,1.112,0.133,1.358-0.129c1-1.063,1.914-2.215,2.755-3.408
		c0.229-0.324,0.249-1.235,0.077-1.323C46.49,42.27,45.602,42.057,44.607,41.727z M50.307,32.252
		c-2.164-2.467-4.174-4.761-6.201-7.074c-0.668,1.82,0.271,4.716,2.049,6.155C47.328,32.284,48.659,32.746,50.307,32.252z
		 M45.414,49.482c0,0.162-0.044,0.34,0.008,0.481c0.186,0.5,0.402,0.986,0.607,1.478c0.33-0.425,0.853-0.807,0.959-1.28
		c0.419-1.85,1.552-3.125,2.98-4.244c0.29-0.229,0.639-0.807,0.536-1.015c-0.174-0.354-0.675-0.735-1.056-0.754
		c-0.542-0.026-1.271,0.097-1.621,0.45C46.505,45.942,45.473,47.486,45.414,49.482z M29.861,35.194
		c-0.332-1.238-0.305-2.427-1.636-2.345c-0.465,0.028-0.906,1.157-1.273,1.83c-0.275,0.503-0.483,1.067-0.595,1.63
		c-0.126,0.631-0.112,1.29-0.158,1.938c0.618-0.143,1.429-0.088,1.813-0.467C28.755,37.046,29.258,36.07,29.861,35.194z
		 M34.056,28.75c-0.057-0.07-0.201-0.409-0.356-0.414c-0.451-0.014-1.013-0.039-1.34,0.201c-0.888,0.651-1.717,1.399-2.482,2.193
		c-0.234,0.243-0.36,0.844-0.221,1.124c0.143,0.286,0.665,0.509,1.034,0.532C31.773,32.452,34.081,30.033,34.056,28.75z
		 M48.209,37.88c-0.659-0.914-1.077-2.102-1.711-2.231c-0.982-0.202-1.484,0.792-1.508,1.843c-0.03,1.309,0.32,2.489,1.764,2.563
		C47.145,40.077,47.598,38.833,48.209,37.88z M34.986,27.844c1.163,2.649,3.227,3.307,4.644,1.877
		c0.267-0.268,0.126-0.937,0.175-1.42C38.311,28.159,36.818,28.018,34.986,27.844z M42.271,29.514
		c-0.648,2.151,0.604,4.29,2.217,4.481c0.332,0.039,0.764-0.095,1.016-0.307c0.163-0.137,0.227-0.692,0.092-0.834
		C44.587,31.773,43.518,30.75,42.271,29.514z M39.564,33.523c0.096,1.475,0.608,2.324,1.797,2.371
		c0.359,0.015,0.746-0.634,1.119-0.978c-0.685-0.718-1.354-1.452-2.092-2.111C40.35,32.77,39.75,33.36,39.564,33.523z M42.59,36.505
		c-0.605,0.787-1.304,1.31-1.236,1.703c0.084,0.502,0.785,0.9,1.222,1.345c0.394-0.433,1.059-0.837,1.103-1.302
		C43.718,37.805,43.116,37.298,42.59,36.505z M33.561,36.635c-0.677-0.616-1.031-0.938-1.384-1.257
		c-0.483,0.588-0.983,1.167-1.407,1.797c-0.023,0.033,0.688,0.77,0.87,0.699C32.237,37.641,32.749,37.186,33.561,36.635z
		 M39.223,32.593c-0.861-0.376-1.427-0.85-1.822-0.736c-0.463,0.133-0.78,0.777-1.16,1.2c0.428,0.32,0.914,0.951,1.271,0.885
		C38.023,33.847,38.443,33.245,39.223,32.593z M33.991,32.196c-0.561,0.831-1.023,1.29-1.166,1.833
		c-0.059,0.226,0.72,0.958,0.852,0.896c0.577-0.271,1.056-0.75,1.57-1.152C34.928,33.373,34.609,32.973,33.991,32.196z"/>
	<path d="M37.073,62.372c-1.585,2.338-3.115,4.594-4.898,7.225c-0.376-2.426-0.695-4.479-0.978-6.309
		C32.915,63.021,34.955,62.702,37.073,62.372z"/>
	<path d="M32.549,55.654c-1.261-0.95-2.263-1.704-3.512-2.646C30.974,52.905,31.935,53.64,32.549,55.654z"/>
	<path fill="#FFFFFF" d="M19.757,25.048c0.779-0.434,1.516-0.988,2.345-1.28c2.88-1.013,5.26-2.518,6.353-5.574
		c0.419-1.171,0.939-2.23,2.568-1.171c1.027,0.668,2.231,1.204,3.427,1.438c2.229,0.438,4.506,0.8,6.771,0.836
		c1.775,0.028,3.563-0.474,5.344-0.755c0.941-0.149,1.324,0.237,1.511,1.177c0.876,4.424,3.514,7.417,7.628,9.182
		c0.29,0.125,0.656,0.505,0.652,0.762c-0.002,0.271-0.354,0.653-0.645,0.787c-1.725,0.8-3.404,0.405-4.857-0.587
		c-3.055-2.083-4.776-4.972-4.806-8.756c-0.002-0.301-0.088-0.601-0.165-1.091c-2.5,1.553-4.965,2.678-7.869,2.363
		c-2.978-0.322-5.111-1.935-7.046-4.617c-0.808,5.158-3.451,8.25-8.463,8.758c-0.884,0.089-1.838-0.507-2.76-0.787
		C19.749,25.505,19.753,25.276,19.757,25.048z"/>
	<path fill="#FFFFFF" d="M13.285,39.821c0.114-0.416,0.157-0.826,0.333-1.17c0.772-1.509,1.669-2.959,2.36-4.502
		c1.05-2.348,0.652-4.798,0.289-7.232c-0.071-0.474,0.011-0.97,0.023-1.456c0.473,0.173,1.03,0.239,1.404,0.536
		c2.415,1.916,3.57,5.775,2.689,8.782C19.643,37.305,15.941,40.014,13.285,39.821z"/>
	<path fill="#FFFFFF" d="M24.197,28.083c0.762-0.304,1.59-0.503,2.269-0.937c1.139-0.725,2.201-1.577,3.257-2.422
		c0.41-0.328,0.653-0.891,1.088-1.154c0.624-0.377,1.499-0.535,1.595,0.482c0.22,2.336-2.549,6.79-5.53,6.049
		c-0.987-0.245-1.863-0.933-2.79-1.417C24.124,28.484,24.161,28.284,24.197,28.083z"/>
	<path fill="#FFFFFF" d="M38.686,26.821c-2.164,0.367-3.683-0.662-4.867-2.319c-0.204-0.285-0.339-0.89-0.18-1.093
		c0.197-0.252,0.872-0.453,1.1-0.305c1.971,1.278,4.164,0.752,6.275,0.905c0.569,0.041,1.119,0.357,1.678,0.548
		c-0.414,0.517-0.727,1.237-1.265,1.505C40.593,26.478,39.607,26.584,38.686,26.821z"/>
	<path fill="#FFFFFF" d="M44.607,41.727c0.994,0.33,1.883,0.543,2.67,0.952c0.172,0.088,0.15,0.999-0.077,1.324
		c-0.841,1.192-1.755,2.346-2.755,3.406c-0.246,0.264-1.155,0.346-1.358,0.131c-1-1.058-0.731-4.295,0.356-5.172
		C43.798,42.083,44.252,41.917,44.607,41.727z"/>
	<path fill="#FFFFFF" d="M50.307,32.252c-1.646,0.492-2.979,0.03-4.152-0.919c-1.777-1.439-2.717-4.334-2.049-6.155
		C46.133,27.493,48.143,29.786,50.307,32.252z"/>
	<path fill="#FFFFFF" d="M45.414,49.482c0.059-1.996,1.091-3.54,2.415-4.884c0.351-0.354,1.079-0.477,1.621-0.45
		c0.381,0.019,0.882,0.399,1.056,0.754c0.104,0.208-0.246,0.786-0.535,1.015c-1.431,1.119-2.563,2.396-2.98,4.244
		c-0.107,0.475-0.629,0.855-0.961,1.28c-0.204-0.491-0.422-0.978-0.606-1.478C45.37,49.822,45.414,49.645,45.414,49.482z"/>
	<path fill="#FFFFFF" d="M29.861,35.194c-0.603,0.876-1.106,1.854-1.85,2.586c-0.384,0.379-1.195,0.324-1.813,0.467
		c0.046-0.646,0.032-1.307,0.158-1.938c0.112-0.563,0.32-1.126,0.595-1.63c0.367-0.673,0.808-1.802,1.273-1.83
		C29.556,32.768,29.529,33.957,29.861,35.194z"/>
	<path fill="#FFFFFF" d="M34.056,28.75c0.025,1.282-2.282,3.701-3.366,3.636c-0.37-0.023-0.892-0.246-1.034-0.532
		c-0.139-0.279-0.013-0.88,0.221-1.124c0.766-0.793,1.595-1.542,2.482-2.193c0.328-0.24,0.889-0.215,1.34-0.201
		C33.854,28.341,33.999,28.681,34.056,28.75z"/>
	<path fill="#FFFFFF" d="M48.209,37.88c-0.611,0.953-1.064,2.195-1.455,2.176c-1.443-0.074-1.794-1.256-1.764-2.564
		c0.023-1.05,0.523-2.044,1.508-1.842C47.132,35.779,47.55,36.966,48.209,37.88z"/>
	<path fill="#FFFFFF" d="M34.986,27.844c1.833,0.174,3.325,0.315,4.817,0.457c-0.048,0.483,0.092,1.152-0.174,1.42
		C38.213,31.15,36.149,30.493,34.986,27.844z"/>
	<path fill="#FFFFFF" d="M42.271,29.514c1.246,1.235,2.314,2.26,3.324,3.34c0.133,0.143,0.07,0.698-0.093,0.834
		c-0.252,0.212-0.683,0.346-1.015,0.307C42.876,33.804,41.623,31.665,42.271,29.514z"/>
	<path fill="#FFFFFF" d="M39.564,33.523c0.186-0.164,0.785-0.754,0.824-0.718c0.737,0.659,1.407,1.393,2.092,2.111
		c-0.373,0.344-0.76,0.993-1.119,0.978C40.174,35.849,39.66,35,39.564,33.523z"/>
	<path fill="#FFFFFF" d="M42.59,36.505c0.526,0.793,1.128,1.3,1.087,1.746c-0.044,0.465-0.709,0.869-1.103,1.302
		c-0.436-0.443-1.139-0.843-1.223-1.345C41.286,37.814,41.984,37.292,42.59,36.505z"/>
	<path fill="#FFFFFF" d="M39.898,42.456c0.135-0.498,0.137-1.11,0.438-1.465c0.3-0.352,0.897-0.572,1.374-0.589
		c0.229-0.007,0.721,0.653,0.659,0.905c-0.111,0.457-0.47,1.037-0.869,1.195c-0.461,0.182-1.081-0.037-1.632-0.084L39.898,42.456z"
		/>
	<path fill="#FFFFFF" d="M33.561,36.635c-0.812,0.551-1.324,1.006-1.921,1.239c-0.182,0.069-0.893-0.666-0.87-0.699
		c0.424-0.631,0.924-1.209,1.407-1.797C32.53,35.699,32.884,36.019,33.561,36.635z"/>
	<path fill="#FFFFFF" d="M39.223,32.593c-0.777,0.651-1.197,1.253-1.713,1.349c-0.355,0.066-0.843-0.565-1.271-0.885
		c0.38-0.423,0.697-1.066,1.162-1.2C37.796,31.743,38.359,32.216,39.223,32.593z"/>
	<path fill="#FFFFFF" d="M33.991,32.196c0.618,0.776,0.937,1.176,1.256,1.577c-0.514,0.403-0.993,0.881-1.57,1.152
		c-0.132,0.063-0.911-0.67-0.852-0.896C32.968,33.486,33.43,33.027,33.991,32.196z"/>
</g>
</svg>
